<?xml version="1.0" encoding="UTF-8"?>
<svg width="160" height="160" viewBox="0 0 160 160" fill="none" xmlns="http://www.w3.org/2000/svg" role="img" aria-label="Genibi logo">
  <defs>
    <linearGradient id="g1" x1="0" y1="0" x2="160" y2="160" gradientUnits="userSpaceOnUse">
      <stop offset="0" stop-color="#4BE1B6"/>
      <stop offset="1" stop-color="#B8A7FF"/>
    </linearGradient>
    <filter id="shadow" x="-20" y="-20" width="200" height="200" filterUnits="userSpaceOnUse" color-interpolation-filters="sRGB">
      <feDropShadow dx="0" dy="6" stdDeviation="8" flood-color="#000000" flood-opacity="0.15"/>
    </filter>
  </defs>
  <circle cx="80" cy="80" r="64" fill="url(#g1)" filter="url(#shadow)"/>
  <!-- Stylized G -->
  <path d="M80 36c-24 0-44 18-44 44s20 44 44 44c20.7 0 38-13.7 42.6-32H96.5c-2.3 7.1-8.9 12-16.5 12c-10.5 0-19-8.5-19-19s8.5-19 19-19c7.6 0 14.2 4.8 16.5 12H124c-4.6-18.3-21.9-32-44-32Z" fill="#0F172A" opacity="0.9"/>
</svg>