<svg xmlns="http://www.w3.org/2000/svg" viewBox="0 0 128 128" role="img" aria-label="Genibi logo: heart within circle with horizontal crack">
  <defs>
    <radialGradient id="circleGrad" cx="50%" cy="50%" r="60%">
      <stop offset="0%" stop-color="#e6fff7"/>
      <stop offset="60%" stop-color="#b7f3e0"/>
      <stop offset="100%" stop-color="#9fd7ff"/>
    </radialGradient>
    <linearGradient id="heartGrad" x1="0" x2="1" y1="0" y2="0">
      <stop offset="0%" stop-color="#1f2937"/>
      <stop offset="100%" stop-color="#111827"/>
    </linearGradient>
    <filter id="softShadow" x="-50%" y="-50%" width="200%" height="200%">
      <feGaussianBlur in="SourceAlpha" stdDeviation="2" result="blur"/>
      <feOffset in="blur" dx="0" dy="2" result="offset"/>
      <feMerge>
        <feMergeNode in="offset"/>
        <feMergeNode in="SourceGraphic"/>
      </feMerge>
    </filter>
  </defs>

  <!-- Circle background -->
  <circle cx="64" cy="64" r="58" fill="url(#circleGrad)" filter="url(#softShadow)" />

  <!-- Heart shape -->
  <path d="M64 98c-2.2-2.2-20.1-19.1-28.5-27.5C28 63 24 58 24 49c0-9 7.4-16 16.5-16 6.4 0 12 3.3 15.5 8.4C59 36.3 64.6 33 71 33c9.1 0 16.5 7 16.5 16 0 9-4 14-11.5 21.5C84.1 79 66.2 95.8 64 98z" fill="url(#heartGrad)"/>

  <!-- Horizontal crack: subtle zigzag across the heart -->
  <path d="M40 64c6 0 10 0 16 0 2 0 4 0 6-.2 2-.2 4-.6 6-1.2 2-.6 3.8-1.4 5.8-2.4 3.2-1.6 6.2-3.2 10.4-3.2" fill="none" stroke="#ffffff" stroke-width="3" stroke-linecap="round" stroke-linejoin="round"/>
  <path d="M40 64c2 1.4 4 2.8 6 2.8 2 0 4-1.4 6-2.8 2-1.4 4-2.8 6-2.8s4 1.4 6 2.8 4 2.8 6 2.8 4-1.4 6-2.8 4-2.8 6-2.8" fill="none" stroke="#ffffff" stroke-width="2" stroke-linecap="round" stroke-linejoin="round"/>

  <!-- Subtle highlight on heart -->
  <path d="M52 52c-2.2 0-4.2.8-5.8 2.2" fill="none" stroke="#9ca3af" stroke-width="1.2" stroke-linecap="round" />
</svg>